<svg width="16" height="16" viewBox="0 0 16 16" fill="none" xmlns="http://www.w3.org/2000/svg">
<g clip-path="url(#clip0_1317_24153)">
<path d="M15.0007 10.332C14.7354 10.332 14.4811 10.4374 14.2935 10.6249C14.106 10.8125 14.0007 11.0668 14.0007 11.332V12.332C14.0007 12.7741 13.8251 13.198 13.5125 13.5105C13.1999 13.8231 12.776 13.9987 12.334 13.9987H11.334C11.0688 13.9987 10.8144 14.1041 10.6269 14.2916C10.4393 14.4791 10.334 14.7335 10.334 14.9987C10.334 15.2639 10.4393 15.5183 10.6269 15.7058C10.8144 15.8933 11.0688 15.9987 11.334 15.9987H12.334C13.3061 15.9976 14.2381 15.611 14.9255 14.9236C15.6129 14.2362 15.9996 13.3042 16.0007 12.332V11.332C16.0007 11.0668 15.8953 10.8125 15.7078 10.6249C15.5202 10.4374 15.2659 10.332 15.0007 10.332Z" fill="#EFF0FF"/>
<path d="M4.66667 0H3.66667C2.69453 0.00105878 1.76252 0.387707 1.07511 1.07511C0.387707 1.76252 0.00105878 2.69453 0 3.66667L0 4.66667C0 4.93188 0.105357 5.18624 0.292893 5.37377C0.48043 5.56131 0.734784 5.66667 1 5.66667C1.26522 5.66667 1.51957 5.56131 1.70711 5.37377C1.89464 5.18624 2 4.93188 2 4.66667V3.66667C2 3.22464 2.17559 2.80072 2.48816 2.48816C2.80072 2.17559 3.22464 2 3.66667 2H4.66667C4.93188 2 5.18624 1.89464 5.37377 1.70711C5.56131 1.51957 5.66667 1.26522 5.66667 1C5.66667 0.734784 5.56131 0.48043 5.37377 0.292893C5.18624 0.105357 4.93188 0 4.66667 0V0Z" fill="#EFF0FF"/>
<path d="M4.66667 13.9987H3.66667C3.22464 13.9987 2.80072 13.8231 2.48816 13.5105C2.17559 13.198 2 12.7741 2 12.332V11.332C2 11.0668 1.89464 10.8125 1.70711 10.6249C1.51957 10.4374 1.26522 10.332 1 10.332C0.734784 10.332 0.48043 10.4374 0.292893 10.6249C0.105357 10.8125 0 11.0668 0 11.332L0 12.332C0.00105878 13.3042 0.387707 14.2362 1.07511 14.9236C1.76252 15.611 2.69453 15.9976 3.66667 15.9987H4.66667C4.93188 15.9987 5.18624 15.8933 5.37377 15.7058C5.56131 15.5183 5.66667 15.2639 5.66667 14.9987C5.66667 14.7335 5.56131 14.4791 5.37377 14.2916C5.18624 14.1041 4.93188 13.9987 4.66667 13.9987Z" fill="#EFF0FF"/>
<path d="M12.334 0H11.334C11.0688 0 10.8144 0.105357 10.6269 0.292893C10.4393 0.48043 10.334 0.734784 10.334 1C10.334 1.26522 10.4393 1.51957 10.6269 1.70711C10.8144 1.89464 11.0688 2 11.334 2H12.334C12.776 2 13.1999 2.17559 13.5125 2.48816C13.8251 2.80072 14.0007 3.22464 14.0007 3.66667V4.66667C14.0007 4.93188 14.106 5.18624 14.2935 5.37377C14.4811 5.56131 14.7354 5.66667 15.0007 5.66667C15.2659 5.66667 15.5202 5.56131 15.7078 5.37377C15.8953 5.18624 16.0007 4.93188 16.0007 4.66667V3.66667C15.9996 2.69453 15.6129 1.76252 14.9255 1.07511C14.2381 0.387707 13.3061 0.00105878 12.334 0V0Z" fill="#EFF0FF"/>
</g>
<defs>
<clipPath id="clip0_1317_24153">
<rect width="16" height="16" fill="white"/>
</clipPath>
</defs>
</svg>
