<svg width="66" height="66" viewBox="0 0 66 66" fill="none" xmlns="http://www.w3.org/2000/svg">
<circle cx="33" cy="33" r="21.5" stroke="#7983FF" stroke-opacity="0.41"/>
<path d="M33 34.4L28.1 39.3C27.9167 39.4833 27.6834 39.575 27.4 39.575C27.1167 39.575 26.8834 39.4833 26.7 39.3C26.5167 39.1167 26.425 38.8833 26.425 38.6C26.425 38.3167 26.5167 38.0833 26.7 37.9L31.6 33L26.7 28.1C26.5167 27.9167 26.425 27.6833 26.425 27.4C26.425 27.1167 26.5167 26.8833 26.7 26.7C26.8834 26.5167 27.1167 26.425 27.4 26.425C27.6834 26.425 27.9167 26.5167 28.1 26.7L33 31.6L37.9 26.7C38.0834 26.5167 38.3167 26.425 38.6 26.425C38.8834 26.425 39.1167 26.5167 39.3 26.7C39.4834 26.8833 39.575 27.1167 39.575 27.4C39.575 27.6833 39.4834 27.9167 39.3 28.1L34.4 33L39.3 37.9C39.4834 38.0833 39.575 38.3167 39.575 38.6C39.575 38.8833 39.4834 39.1167 39.3 39.3C39.1167 39.4833 38.8834 39.575 38.6 39.575C38.3167 39.575 38.0834 39.4833 37.9 39.3L33 34.4Z" fill="#E13F3F"/>
</svg>
