<svg width="16" height="16" viewBox="0 0 16 16" fill="none" xmlns="http://www.w3.org/2000/svg">
<g clip-path="url(#clip0_1317_24148)">
<path d="M13.8662 2.86237C13.739 2.74902 13.5733 2.68864 13.403 2.69365C13.2327 2.69865 13.0708 2.76866 12.9505 2.88929C12.8302 3.00992 12.7607 3.17203 12.7561 3.34233C12.7516 3.51262 12.8125 3.67819 12.9262 3.80504C14.037 4.91869 14.6608 6.42743 14.6608 8.00037C14.6608 9.57332 14.037 11.0821 12.9262 12.1957C12.8585 12.2561 12.8038 12.3296 12.7655 12.4118C12.7272 12.494 12.7061 12.5831 12.7034 12.6738C12.7007 12.7644 12.7166 12.8547 12.75 12.939C12.7834 13.0233 12.8337 13.0999 12.8977 13.1641C12.9618 13.2283 13.0382 13.2788 13.1224 13.3124C13.2066 13.3461 13.2968 13.3622 13.3875 13.3598C13.4781 13.3574 13.5674 13.3365 13.6497 13.2984C13.732 13.2604 13.8056 13.2059 13.8662 13.1384C15.227 11.7747 15.9912 9.92687 15.9912 8.00037C15.9912 6.07388 15.227 4.22606 13.8662 2.86237Z" fill="#EFF0FF"/>
<path d="M12.0622 4.86173C12.0007 4.79806 11.9271 4.74727 11.8458 4.71233C11.7645 4.67739 11.677 4.659 11.5885 4.65823C11.5 4.65746 11.4122 4.67433 11.3302 4.70785C11.2483 4.74137 11.1739 4.79087 11.1113 4.85347C11.0487 4.91606 10.9992 4.99049 10.9657 5.07243C10.9321 5.15436 10.9153 5.24214 10.916 5.33066C10.9168 5.41918 10.9352 5.50666 10.9701 5.588C11.0051 5.66933 11.0559 5.7429 11.1195 5.8044C11.7006 6.38724 12.027 7.1767 12.027 7.99973C12.027 8.82276 11.7006 9.61222 11.1195 10.1951C11.0559 10.2566 11.0051 10.3301 10.9701 10.4115C10.9352 10.4928 10.9168 10.5803 10.916 10.6688C10.9153 10.7573 10.9321 10.8451 10.9657 10.927C10.9992 11.009 11.0487 11.0834 11.1113 11.146C11.1739 11.2086 11.2483 11.2581 11.3302 11.2916C11.4122 11.3251 11.5 11.342 11.5885 11.3412C11.677 11.3405 11.7645 11.3221 11.8458 11.2871C11.9271 11.2522 12.0007 11.2014 12.0622 11.1377C12.8931 10.3048 13.3597 9.17626 13.3597 7.99973C13.3597 6.8232 12.8931 5.6947 12.0622 4.86173Z" fill="#EFF0FF"/>
<path d="M9.21267 0.137964C7.18702 0.518181 5.38486 1.6621 4.17867 3.3333H3.33333C2.4496 3.33436 1.60237 3.68589 0.97748 4.31078C0.352588 4.93567 0.00105857 5.7829 0 6.66663L0 9.3333C0.00105857 10.217 0.352588 11.0643 0.97748 11.6892C1.60237 12.314 2.4496 12.6656 3.33333 12.6666H4.17933C5.38518 14.3379 7.18716 15.4818 9.21267 15.862C9.30879 15.8797 9.40764 15.876 9.50219 15.8512C9.59675 15.8265 9.6847 15.7812 9.75982 15.7187C9.83495 15.6562 9.8954 15.5779 9.93691 15.4894C9.97841 15.4009 9.99995 15.3044 10 15.2066V0.793298C9.99995 0.695556 9.97841 0.59902 9.93691 0.510528C9.8954 0.422036 9.83495 0.343753 9.75982 0.281223C9.6847 0.218694 9.59675 0.173449 9.50219 0.148692C9.40764 0.123936 9.30879 0.120273 9.21267 0.137964Z" fill="#EFF0FF"/>
</g>
<defs>
<clipPath id="clip0_1317_24148">
<rect width="16" height="16" fill="white"/>
</clipPath>
</defs>
</svg>
